<?xml version="1.0" encoding="utf-8"?>
<!-- Generator: Adobe Illustrator 24.0.2, SVG Export Plug-In . SVG Version: 6.00 Build 0)  -->
<svg version="1.1" id="Layer_1" xmlns="http://www.w3.org/2000/svg" xmlns:xlink="http://www.w3.org/1999/xlink" x="0px" y="0px"
	 viewBox="0 0 80 80" style="enable-background:new 0 0 80 80;" xml:space="preserve">
<style type="text/css">
	.st0{fill:#FFFFFF;}
	.st1{fill:#0071BC;}
</style>
<g>
	<path class="st0" d="M54.7,0H19.3C9.8,0,2,7.8,2,17.3v35.4C2,62.2,9.8,70,19.3,70h35.4C64.2,70,72,62.2,72,52.7V17.3
		C72,7.8,64.2,0,54.7,0z"/>
	<path class="st1" d="M30.4,70h11.9V44.4h8.9L53,33.3H42.3v-7.3c0-3,1.5-6,6.3-6h4.9v-9.3c0,0-4.4-0.8-8.7-0.8
		c-8.8,0-14.6,5.3-14.6,15v8.5h-9.8v11.2h9.9C30.4,44.4,30.4,63.9,30.4,70z"/>
</g>
</svg>
