<?xml version="1.0" encoding="utf-8"?>
<!-- Generator: Adobe Illustrator 24.0.2, SVG Export Plug-In . SVG Version: 6.00 Build 0)  -->
<svg version="1.1" id="Layer_1" xmlns="http://www.w3.org/2000/svg" xmlns:xlink="http://www.w3.org/1999/xlink" x="0px" y="0px"
	 viewBox="0 0 310 130" style="enable-background:new 0 0 310 130;" xml:space="preserve">
<style type="text/css">
	.st0{fill:#E6E6E6;}
	.st1{fill:#FFFFFF;}
</style>
<g>
	<g>
		<path class="st0" d="M4.7,129h11c2.5,0,4.5-2,4.5-4.5V84.3L0.2,69v55.5C0.2,127,2.2,129,4.7,129z"/>
		<path class="st0" d="M56.8,84.3v40.3c0,2.5,2,4.5,4.5,4.5h11c2.5,0,4.5-2,4.5-4.5V69L56.8,84.3z"/>
	</g>
	<path class="st0" d="M272.4,79h34.9c1.4,0,2.5-1.1,2.5-2.5v-15c0-1.4-1.1-2.5-2.5-2.5l-54.9,0c-1.4,0-2.5,1.1-2.5,2.5v65
		c0,1.4,1.1,2.5,2.5,2.5h54.9c1.4,0,2.5-1.1,2.5-2.5v-15c0-1.4-1.1-2.5-2.5-2.5h-34.9c-1.4,0-2.5-1.1-2.5-2.5l0,0
		c0-1.4,1.1-2.5,2.5-2.5h34.9c1.4,0,2.5-1.1,2.5-2.5v-15c0-1.4-1.1-2.5-2.5-2.5h-34.9c-1.4,0-2.5-1.1-2.5-2.5v0
		C269.9,80.1,271,79,272.4,79z"/>
	<g>
		<path class="st0" d="M121.6,129L121.6,129c-19.3,0-35-15.7-35-35s15.7-35,35-35c19.3,0,35,15.7,35,35S140.9,129,121.6,129z
			 M121.6,79c-8.3,0-15,6.7-15,15s6.7,15,15,15h0c8.3,0,15-6.7,15-15S129.9,79,121.6,79z"/>
	</g>
	<path class="st1" d="M217.7,84.5c-1.3,1.3-3.5,0.5-3.7-1.3C208.6,37,169.3,1,121.6,1C74,1,34.6,36.9,29.2,83.1
		c-0.2,1.8-2.4,2.6-3.7,1.3L6.8,65.6c-2.4-2.4-6.6-0.7-6.6,2.7v17.3c0,1,0.4,2,1.1,2.7l34.4,34.4c1.5,1.5,4,1.5,5.5,0l11.4-11.4
		l23-23c0.7-0.7,1.1-1.7,1.1-2.7V68.4c0-3.4-4.2-5.2-6.6-2.7L53.5,82.3c-1.5,1.5-4.1,0.2-3.7-1.9C56.2,46.6,86,21,121.6,21
		c35.6,0,65.3,25.5,71.7,59.2c0.4,2.1-2.2,3.4-3.7,1.9l-16.5-16.5c-2.4-2.4-6.6-0.7-6.6,2.7v17.3c0,1,0.4,2,1.1,2.7l34.4,34.4
		c1.5,1.5,4,1.5,5.5,0L242,88.4c0.7-0.7,1.1-1.7,1.1-2.7V68.4c0-3.4-4.2-5.2-6.6-2.7L217.7,84.5z"/>
</g>
</svg>
