<?xml version="1.0" encoding="utf-8"?>
<!-- Generator: Adobe Illustrator 24.0.2, SVG Export Plug-In . SVG Version: 6.00 Build 0)  -->
<svg version="1.1" id="Layer_1" xmlns="http://www.w3.org/2000/svg" xmlns:xlink="http://www.w3.org/1999/xlink" x="0px" y="0px"
	 viewBox="0 0 310 165" style="enable-background:new 0 0 310 165;" xml:space="preserve">
<style type="text/css">
	.st0{fill:url(#SVGID_1_);}
	.st1{fill:url(#SVGID_2_);}
	.st2{fill:url(#SVGID_3_);}
	.st3{fill:url(#SVGID_4_);}
	.st4{fill:url(#SVGID_5_);}
	.st5{fill:#333333;}
</style>
<g>
	<g>
		<linearGradient id="SVGID_1_" gradientUnits="userSpaceOnUse" x1="10.5519" y1="107.2256" x2="43.132" y2="-40.2426">
			<stop  offset="8.801110e-03" style="stop-color:#93278F"/>
			<stop  offset="0.3839" style="stop-color:#ED1E79"/>
			<stop  offset="0.9625" style="stop-color:#F7931E"/>
		</linearGradient>
		<path class="st0" d="M2.6,94.1c-1-1-2.6-0.3-2.6,1.1v28.6c0,2.5,2,4.5,4.5,4.5h11c2.5,0,4.5-2,4.5-4.5v-11.6
			c0-0.4-0.2-0.8-0.4-1.1L2.6,94.1z"/>
		<linearGradient id="SVGID_2_" gradientUnits="userSpaceOnUse" x1="66.3935" y1="119.5627" x2="98.9737" y2="-27.9055">
			<stop  offset="8.801110e-03" style="stop-color:#93278F"/>
			<stop  offset="0.3839" style="stop-color:#ED1E79"/>
			<stop  offset="0.9625" style="stop-color:#F7931E"/>
		</linearGradient>
		<path class="st1" d="M74.1,94.4l-17,16.8c-0.3,0.3-0.4,0.7-0.4,1.1v11.6c0,2.5,2,4.5,4.5,4.5h11c2.5,0,4.5-2,4.5-4.5V95.5
			C76.7,94.1,75.1,93.4,74.1,94.4z"/>
		<linearGradient id="SVGID_3_" gradientUnits="userSpaceOnUse" x1="264.5286" y1="163.3367" x2="297.1087" y2="15.8686">
			<stop  offset="8.801110e-03" style="stop-color:#93278F"/>
			<stop  offset="0.3839" style="stop-color:#ED1E79"/>
			<stop  offset="0.9625" style="stop-color:#F7931E"/>
		</linearGradient>
		<path class="st2" d="M272.6,78.2h34.9c1.4,0,2.5-1.1,2.5-2.5v-15c0-1.4-1.1-2.5-2.5-2.5h-55c-1.4,0-2.5,1.1-2.5,2.5v65.1
			c0,1.4,1.1,2.5,2.5,2.5h55c1.4,0,2.5-1.1,2.5-2.5v-15c0-1.4-1.1-2.5-2.5-2.5h-34.9c-1.4,0-2.5-1.1-2.5-2.5c0-1.4,1.1-2.5,2.5-2.5
			h34.9c1.4,0,2.5-1.1,2.5-2.5v-15c0-1.4-1.1-2.5-2.5-2.5h-34.9c-1.4,0-2.5-1.1-2.5-2.5C270,79.3,271.1,78.2,272.6,78.2z"/>
		<linearGradient id="SVGID_4_" gradientUnits="userSpaceOnUse" x1="113.4484" y1="129.9585" x2="146.0285" y2="-17.5096">
			<stop  offset="8.801110e-03" style="stop-color:#93278F"/>
			<stop  offset="0.3839" style="stop-color:#ED1E79"/>
			<stop  offset="0.9625" style="stop-color:#F7931E"/>
		</linearGradient>
		<path class="st3" d="M121.6,58.2c-19.3,0-35,15.7-35,35s15.7,35,35,35c19.3,0,35-15.7,35-35S140.9,58.2,121.6,58.2z M121.6,108.3
			c-8.3,0-15-6.7-15-15s6.7-15,15-15c8.3,0,15,6.7,15,15S129.9,108.3,121.6,108.3z"/>
		<linearGradient id="SVGID_5_" gradientUnits="userSpaceOnUse" x1="109.9088" y1="129.1765" x2="142.489" y2="-18.2916">
			<stop  offset="8.801110e-03" style="stop-color:#93278F"/>
			<stop  offset="0.3839" style="stop-color:#ED1E79"/>
			<stop  offset="0.9625" style="stop-color:#F7931E"/>
		</linearGradient>
		<path class="st4" d="M236.6,64.9l-18.8,18.8c-1.3,1.3-3.5,0.5-3.7-1.3c-5.4-46.3-44.8-82.3-92.5-82.3C73.9,0.1,34.4,36.1,29,82.3
			c-0.2,1.8-2.4,2.6-3.7,1.3L6.6,64.8C4.2,62.4,0,64.1,0,67.5v17.3c0,1,0.4,2,1.1,2.7L35.5,122c1.5,1.5,4,1.5,5.5,0l11.4-11.4l23-23
			c0.7-0.7,1.1-1.7,1.1-2.7V67.6c0-3.4-4.2-5.2-6.6-2.7L53.4,81.5c-1.5,1.5-4.1,0.2-3.7-1.9c6.4-33.8,36.2-59.5,71.9-59.5
			s65.4,25.5,71.8,59.3c0.4,2.1-2.2,3.4-3.7,1.9l-16.5-16.5c-2.4-2.4-6.6-0.7-6.6,2.7v17.3c0,1,0.4,2,1.1,2.7l34.4,34.4
			c1.5,1.5,4,1.5,5.5,0l34.5-34.3c0.7-0.7,1.1-1.7,1.1-2.7V67.6C243.2,64.2,239,62.4,236.6,64.9z"/>
	</g>
	<g>
		<path class="st5" d="M81.4,160c-1.5,0-2.7-0.3-3.7-0.8c-1.1,0.6-2.5,0.9-3.8,0.9c-3.6,0-6-2.6-6-6.5c0-3.9,2.5-6.5,6.3-6.5
			c1,0,1.9,0.2,2.8,0.6V143l4.3-1.3V160z M75.1,156.7c0.6,0,1.3-0.2,2-0.5V151c-0.6-0.3-1.2-0.5-1.7-0.5c-1.8,0-2.9,1.2-2.9,3.1
			C72.5,155.4,73.4,156.7,75.1,156.7z"/>
		<path class="st5" d="M96,155.1h-7.9c0.2,1.1,0.8,1.6,2.9,1.6c1.2,0,2.9-0.3,4.3-0.6v3.2c-1.3,0.5-3.4,0.8-5.3,0.8
			c-3.9,0-6.4-2.1-6.4-6.3c0-4,2.5-6.6,6.3-6.6c3.8,0,6.3,2.5,6.3,6.3C96.1,154,96.1,154.6,96,155.1z M88,152.4h3.7
			c-0.2-1.2-0.7-2-1.8-2C88.8,150.4,88.2,151.2,88,152.4z"/>
		<path class="st5" d="M110.1,155.1h-7.9c0.2,1.1,0.8,1.6,2.9,1.6c1.2,0,2.9-0.3,4.3-0.6v3.2c-1.3,0.5-3.4,0.8-5.3,0.8
			c-3.9,0-6.4-2.1-6.4-6.3c0-4,2.5-6.6,6.3-6.6c3.8,0,6.3,2.5,6.3,6.3C110.2,154,110.2,154.6,110.1,155.1z M102.1,152.4h3.7
			c-0.2-1.2-0.7-2-1.8-2C102.9,150.4,102.3,151.2,102.1,152.4z"/>
		<path class="st5" d="M125.8,153.6c0,3.9-2.5,6.5-6.3,6.5c-1,0-1.9-0.2-2.8-0.6v5.4h-4.3v-17.6c1.5,0,2.7,0.3,3.7,0.8
			c1.1-0.6,2.4-0.9,3.8-0.9C123.4,147.1,125.8,149.7,125.8,153.6z M121.4,153.6c0-1.8-1-3.1-2.6-3.1c-0.6,0-1.3,0.2-2,0.5v5.2
			c0.6,0.3,1.2,0.5,1.7,0.5C120.2,156.7,121.4,155.5,121.4,153.6z"/>
		<path class="st5" d="M133.4,143l4.3-1.3v18.1h-4.3V143z"/>
		<path class="st5" d="M140.2,143.5c0-1.4,1-2.5,2.5-2.5s2.5,1,2.5,2.5c0,1.4-1,2.5-2.5,2.5S140.2,144.9,140.2,143.5z M144.8,147.4
			v12.5h-4.3v-12.5H144.8z"/>
		<path class="st5" d="M160.2,152.2v7.7h-4.3v-7.3c0-1.4-0.7-2-2-2c-0.8,0-1.4,0.2-2,0.6v8.7h-4.3v-12.6c1.6,0,2.9,0.4,4,1
			c1.4-0.7,2.8-1.1,4.1-1.1C158.6,147.1,160.2,148.6,160.2,152.2z"/>
		<path class="st5" d="M170.9,159.8c-1-1.9-2.2-3.6-3.7-5.5v5.5h-4.3V143l4.3-1.3v10.5c1.4-1.7,2.5-3.3,3.5-4.9h5
			c-1.3,2-2.7,3.8-4.4,5.9c2.1,2.4,3.3,4.3,4.6,6.6H170.9z"/>
	</g>
</g>
</svg>
