<?xml version="1.0" encoding="utf-8"?>
<!-- Generator: Adobe Illustrator 16.0.0, SVG Export Plug-In . SVG Version: 6.00 Build 0)  -->
<!DOCTYPE svg PUBLIC "-//W3C//DTD SVG 1.1//EN" "http://www.w3.org/Graphics/SVG/1.1/DTD/svg11.dtd">
<svg version="1.1" id="Layer_1" xmlns="http://www.w3.org/2000/svg" xmlns:xlink="http://www.w3.org/1999/xlink" x="0px" y="0px"
	 width="150px" height="42px" viewBox="0 0 150 42" enable-background="new 0 0 150 42" xml:space="preserve">
<path d="M149.348,25.407c-0.463-0.135-0.949,0.117-1.108,0.572c-0.47,1.354-1.749,2.264-3.179,2.264c-1.858,0-3.37-1.512-3.37-3.371
	V2.937c0-1.433-1.168-2.606-2.616-2.615h-5.131c-0.998,0-1.859,0.57-2.299,1.396c-2.038-0.888-4.283-1.384-6.645-1.384
	c-7.23,0-13.4,4.618-15.719,11.059c-0.24-2.853-0.98-5.862-2.365-8.986c-0.012-0.027-0.024-0.053-0.038-0.078
	c-0.647-1.147-2.258-2.047-3.692-2.047l-5.559,0.046c-1.113,0.01-1.604,0.572-1.799,0.907c-0.336,0.578-0.294,1.325,0.111,2.049
	c4.426,7.919,1.854,14.917-3.016,21.326V9.778c0-1.334-0.277-2.632-0.828-3.857c-0.072-0.194-0.207-0.446-0.246-0.515
	c-1.641-3.136-4.852-5.084-8.381-5.084c-3.218,0-6.102,1.606-7.815,4.144c-2.938-2.569-6.778-4.132-10.977-4.132
	c-7.211,0-13.368,4.594-15.703,11.007V9.778c0-5.214-4.242-9.456-9.455-9.456c-3.021,0-5.808,1.428-7.574,3.805
	c-1.769-2.377-4.557-3.805-7.578-3.805c-3.02,0-5.807,1.428-7.573,3.805c-1.769-2.377-4.557-3.805-7.578-3.805
	c-4.394,0-8.173,2.986-9.191,7.264c-0.112,0.468,0.164,0.942,0.627,1.078c0.462,0.134,0.95-0.116,1.107-0.571
	c0.473-1.354,1.75-2.265,3.182-2.265c1.858,0,3.37,1.512,3.37,3.37v21.936c0,1.42,1.144,2.584,2.558,2.613
	c0.019,0.002,0.038,0.002,0.057,0.002h5.131c1.441,0,2.615-1.172,2.615-2.615V9.778c0-1.123-0.199-2.222-0.59-3.274
	c0.58-0.438,1.276-0.676,2.01-0.676c1.858,0,3.37,1.512,3.37,3.37v21.936c0,1.395,1.122,2.555,2.511,2.609
	c0.034,0.004,0.069,0.006,0.104,0.006h5.132c1.441,0,2.615-1.172,2.615-2.615V9.778c0-1.124-0.198-2.223-0.59-3.274
	c0.58-0.439,1.276-0.676,2.01-0.676c1.858,0,3.37,1.512,3.37,3.37l-0.004,23.067c0,0.039,0.002,0.076,0.004,0.094v0.486
	c0,0.094,0.016,0.184,0.044,0.27c0.434,4.844,4.526,8.605,9.408,8.605c4.394,0,8.173-2.986,9.191-7.264
	c0.111-0.467-0.164-0.941-0.626-1.076c-0.462-0.135-0.95,0.115-1.109,0.57c-0.47,1.354-1.749,2.264-3.179,2.264
	c-1.831,0-3.327-1.467-3.37-3.287c0.002-0.027,0.003-0.055,0.003-0.082V22.729c2.334,6.414,8.491,11.008,15.703,11.008
	c9.208,0,16.701-7.492,16.701-16.702c0-4.078-1.471-7.816-3.908-10.72c0.512-0.308,1.102-0.488,1.725-0.488
	c1.857,0,3.369,1.512,3.369,3.37v21.936c0,1.42,1.145,2.584,2.561,2.613c0.018,0.002,0.037,0.002,0.056,0.002h5.131
	c0.034,0,0.064-0.008,0.099-0.01c0.594,0.004,1.213,0.006,1.837,0.01c1.516,0.006,3.038,0.014,4.169,0.023h0.027
	c1.312,0,3.274-0.783,4.492-1.801c3.301-2.957,6.211-7.152,7.589-12.205c1.31,7.914,8.196,13.97,16.478,13.97
	c3.369,0,6.508-1.008,9.134-2.73c1.743,1.732,4.113,2.742,6.65,2.742c4.394,0,8.174-2.986,9.19-7.264
	C150.087,26.017,149.812,25.542,149.348,25.407z M64.675,26.603c-3.066,0-5.656-4.387-5.656-9.579c0-5.193,2.59-9.579,5.656-9.579
	c3.065,0,5.655,4.386,5.655,9.579C70.33,22.216,67.74,26.603,64.675,26.603z M124.997,26.603c-3.065,0-5.655-4.387-5.655-9.579
	c0-5.193,2.59-9.579,5.655-9.579s5.655,4.386,5.655,9.579C130.652,22.216,128.063,26.603,124.997,26.603z"/>
</svg>
