<?xml version="1.0" encoding="utf-8"?>
<!-- Generator: Adobe Illustrator 22.0.1, SVG Export Plug-In . SVG Version: 6.00 Build 0)  -->
<svg version="1.1" id="Layer_1" xmlns="http://www.w3.org/2000/svg" xmlns:xlink="http://www.w3.org/1999/xlink" x="0px" y="0px"
	 viewBox="0 0 403 403" style="enable-background:new 0 0 403 403;" xml:space="preserve">
<style type="text/css">
	.st0{fill:#FFFFFF;}
</style>
<g>
	<path class="st0" d="M201.5,403C90.4,403,0,312.6,0,201.5S90.4,0,201.5,0S403,90.4,403,201.5S312.6,403,201.5,403z M201.5,3
		C92,3,3,92,3,201.5S92,400,201.5,400S400,311,400,201.5S311,3,201.5,3z"/>
</g>
<path class="st0" d="M308.2,207.8c-0.7-0.2-1.4,0.2-1.6,0.8c-0.7,1.9-2.5,3.2-4.6,3.2c-2.7,0-4.8-2.2-4.8-4.8v-31.5
	c0-2.1-1.7-3.7-3.8-3.8h-7.4c-1.4,0-2.7,0.8-3.3,2c-2.9-1.3-6.1-2-9.5-2c-10.4,0-19.2,6.6-22.6,15.9c-0.3-4.1-1.4-8.4-3.4-12.9
	c0,0,0-0.1-0.1-0.1c-0.9-1.6-3.2-2.9-5.3-2.9l-8,0.1c-1.6,0-2.3,0.8-2.6,1.3c-0.5,0.8-0.4,1.9,0.2,2.9c6.4,11.4,2.7,21.4-4.3,30.6
	v-21.3c0-1.9-0.4-3.8-1.2-5.5c-0.1-0.3-0.3-0.6-0.4-0.7c-2.4-4.5-7-7.3-12-7.3c-4.6,0-8.8,2.3-11.2,5.9c-4.2-3.7-9.7-5.9-15.8-5.9
	c-10.4,0-19.2,6.6-22.5,15.8v-2.2c0-7.5-6.1-13.6-13.6-13.6c-4.3,0-8.3,2-10.9,5.5c-2.5-3.4-6.5-5.5-10.9-5.5c-4.3,0-8.3,2-10.9,5.5
	c-2.5-3.4-6.5-5.5-10.9-5.5c-6.3,0-11.7,4.3-13.2,10.4c-0.2,0.7,0.2,1.4,0.9,1.5c0.7,0.2,1.4-0.2,1.6-0.8c0.7-1.9,2.5-3.3,4.6-3.3
	c2.7,0,4.8,2.2,4.8,4.8V216c0,2,1.6,3.7,3.7,3.8c0,0,0.1,0,0.1,0h7.4c2.1,0,3.8-1.7,3.8-3.8v-30.7c0-1.6-0.3-3.2-0.8-4.7
	c0.8-0.6,1.8-1,2.9-1c2.7,0,4.8,2.2,4.8,4.8V216c0,2,1.6,3.7,3.6,3.7c0,0,0.1,0,0.1,0h7.4c2.1,0,3.8-1.7,3.8-3.8v-30.7
	c0-1.6-0.3-3.2-0.8-4.7c0.8-0.6,1.8-1,2.9-1c2.7,0,4.8,2.2,4.8,4.8l0,33.1c0,0.1,0,0.1,0,0.1v0.7c0,0.1,0,0.3,0.1,0.4
	c0.6,7,6.5,12.4,13.5,12.4c6.3,0,11.7-4.3,13.2-10.4c0.2-0.7-0.2-1.4-0.9-1.5s-1.4,0.2-1.6,0.8c-0.7,1.9-2.5,3.2-4.6,3.2
	c-2.6,0-4.8-2.1-4.8-4.7c0,0,0-0.1,0-0.1V204c3.4,9.2,12.2,15.8,22.5,15.8c13.2,0,24-10.8,24-24c0-5.9-2.1-11.2-5.6-15.4
	c0.7-0.4,1.6-0.7,2.5-0.7c2.7,0,4.8,2.2,4.8,4.8V216c0,2,1.6,3.7,3.7,3.8c0,0,0.1,0,0.1,0h7.4c0,0,0.1,0,0.1,0c0.9,0,1.7,0,2.6,0
	c2.2,0,4.4,0,6,0h0c1.9,0,4.7-1.1,6.4-2.6c4.7-4.2,8.9-10.3,10.9-17.5c1.9,11.4,11.8,20.1,23.7,20.1c4.8,0,9.3-1.4,13.1-3.9
	c2.5,2.5,5.9,3.9,9.5,3.9c6.3,0,11.7-4.3,13.2-10.4C309.3,208.7,308.9,208,308.2,207.8z M186.7,209.5c-4.4,0-8.1-6.3-8.1-13.7
	c0-7.5,3.7-13.7,8.1-13.7c4.4,0,8.1,6.3,8.1,13.7C194.8,203.2,191.1,209.5,186.7,209.5z M273.3,209.5c-4.4,0-8.1-6.3-8.1-13.7
	c0-7.5,3.7-13.7,8.1-13.7s8.1,6.3,8.1,13.7C281.4,203.2,277.7,209.5,273.3,209.5z"/>
</svg>
