<?xml version="1.0" encoding="utf-8"?>
<!-- Generator: Adobe Illustrator 22.0.1, SVG Export Plug-In . SVG Version: 6.00 Build 0)  -->
<svg version="1.1" id="Layer_1" xmlns="http://www.w3.org/2000/svg" xmlns:xlink="http://www.w3.org/1999/xlink" x="0px" y="0px"
	 viewBox="0 0 150 42" style="enable-background:new 0 0 150 42;" xml:space="preserve">
<style type="text/css">
	.st0{fill:#FFFFFF;}
</style>
<path class="st0" d="M149.3,25.4c-0.5-0.1-0.9,0.1-1.1,0.6c-0.5,1.4-1.7,2.3-3.2,2.3c-1.9,0-3.4-1.5-3.4-3.4V2.9
	c0-1.4-1.2-2.6-2.6-2.6h-5.1c-1,0-1.9,0.6-2.3,1.4c-2-0.9-4.3-1.4-6.6-1.4c-7.2,0-13.4,4.6-15.7,11.1c-0.2-2.9-1-5.9-2.4-9
	c0,0,0-0.1,0-0.1c-0.6-1.1-2.3-2-3.7-2l-5.6,0c-1.1,0-1.6,0.6-1.8,0.9c-0.3,0.6-0.3,1.3,0.1,2c4.4,7.9,1.9,14.9-3,21.3V9.8
	c0-1.3-0.3-2.6-0.8-3.9c-0.1-0.2-0.2-0.4-0.2-0.5c-1.6-3.1-4.9-5.1-8.4-5.1c-3.2,0-6.1,1.6-7.8,4.1c-2.9-2.6-6.8-4.1-11-4.1
	c-7.2,0-13.4,4.6-15.7,11V9.8c0-5.2-4.2-9.5-9.5-9.5c-3,0-5.8,1.4-7.6,3.8c-1.8-2.4-4.6-3.8-7.6-3.8c-3,0-5.8,1.4-7.6,3.8
	C15,1.7,12.2,0.3,9.2,0.3C4.8,0.3,1,3.3,0,7.6c-0.1,0.5,0.2,0.9,0.6,1.1c0.5,0.1,0.9-0.1,1.1-0.6c0.5-1.4,1.8-2.3,3.2-2.3
	c1.9,0,3.4,1.5,3.4,3.4v21.9c0,1.4,1.1,2.6,2.6,2.6c0,0,0,0,0.1,0h5.1c1.4,0,2.6-1.2,2.6-2.6V9.8c0-1.1-0.2-2.2-0.6-3.3
	c0.6-0.4,1.3-0.7,2-0.7c1.9,0,3.4,1.5,3.4,3.4v21.9c0,1.4,1.1,2.6,2.5,2.6c0,0,0.1,0,0.1,0h5.1c1.4,0,2.6-1.2,2.6-2.6V9.8
	c0-1.1-0.2-2.2-0.6-3.3c0.6-0.4,1.3-0.7,2-0.7c1.9,0,3.4,1.5,3.4,3.4l0,23.1c0,0,0,0.1,0,0.1v0.5c0,0.1,0,0.2,0,0.3
	c0.4,4.8,4.5,8.6,9.4,8.6c4.4,0,8.2-3,9.2-7.3c0.1-0.5-0.2-0.9-0.6-1.1c-0.5-0.1-1,0.1-1.1,0.6c-0.5,1.4-1.7,2.3-3.2,2.3
	c-1.8,0-3.3-1.5-3.4-3.3c0,0,0-0.1,0-0.1V22.7c2.3,6.4,8.5,11,15.7,11c9.2,0,16.7-7.5,16.7-16.7c0-4.1-1.5-7.8-3.9-10.7
	C78,6,78.6,5.8,79.2,5.8c1.9,0,3.4,1.5,3.4,3.4v21.9c0,1.4,1.1,2.6,2.6,2.6c0,0,0,0,0.1,0h5.1c0,0,0.1,0,0.1,0c0.6,0,1.2,0,1.8,0
	c1.5,0,3,0,4.2,0h0c1.3,0,3.3-0.8,4.5-1.8c3.3-3,6.2-7.2,7.6-12.2c1.3,7.9,8.2,14,16.5,14c3.4,0,6.5-1,9.1-2.7
	c1.7,1.7,4.1,2.7,6.6,2.7c4.4,0,8.2-3,9.2-7.3C150.1,26,149.8,25.5,149.3,25.4z M64.7,26.6c-3.1,0-5.7-4.4-5.7-9.6
	c0-5.2,2.6-9.6,5.7-9.6c3.1,0,5.7,4.4,5.7,9.6C70.3,22.2,67.7,26.6,64.7,26.6z M125,26.6c-3.1,0-5.7-4.4-5.7-9.6
	c0-5.2,2.6-9.6,5.7-9.6c3.1,0,5.7,4.4,5.7,9.6C130.7,22.2,128.1,26.6,125,26.6z"/>
</svg>
